<svg xmlns="http://www.w3.org/2000/svg" viewBox="0 0 588.42 130.7"><defs><style>.cls-1{fill:#fff;}</style></defs><g id="Layer_2" data-name="Layer 2"><g id="Layer_1-2" data-name="Layer 1"><path class="cls-1" d="M183.27,86a6.24,6.24,0,0,1-2.16,1.08,10.17,10.17,0,0,1-3.07.42,10.4,10.4,0,0,1-3.61-.54,3.39,3.39,0,0,1-2-2q-3.4-8.47-5.73-14.46t-3.74-10.22h-.42c-.16,3.71-.32,7.12-.46,10.22s-.26,6.13-.37,9.1-.24,6-.37,9-.32,6.34-.54,9.89c-.56.17-1.25.33-2.08.5a14.05,14.05,0,0,1-2.66.25q-5.57,0-5.57-4.16c0-.88.05-2.25.13-4.11s.19-4,.33-6.48.3-5.17.5-8.1.39-5.9.58-8.89.4-5.94.62-8.85.42-5.61.59-8.1a7.11,7.11,0,0,1,2.45-1.71,10.53,10.53,0,0,1,4.61-.87,10.91,10.91,0,0,1,5.11,1,6.57,6.57,0,0,1,2.95,3.45c.72,1.71,1.48,3.6,2.28,5.65s1.62,4.15,2.45,6.31,1.65,4.28,2.46,6.36,1.56,4,2.28,5.86h.33q2.83-7.81,5.61-15.13t4.86-12.38a10.87,10.87,0,0,1,2.58-.83,15.76,15.76,0,0,1,3.24-.33,11.18,11.18,0,0,1,4.9.91,4,4,0,0,1,2.24,2.75c.23,1,.47,2.73.75,5s.56,4.92.83,7.86.56,6.06.83,9.38.53,6.53.75,9.6.42,5.89.58,8.43.28,4.55.34,6a9.07,9.07,0,0,1-2.29,1,10.87,10.87,0,0,1-3,.34,7.76,7.76,0,0,1-3.78-.88,3.69,3.69,0,0,1-1.79-3.28q-.33-5.24-.58-10.26t-.41-9.51q-.18-4.48-.34-8.27c-.11-2.52-.19-4.7-.24-6.52h-.42q-1.34,3.9-3.66,9.93T183.27,86Z"/><path class="cls-1" d="M224.07,83.77a9.93,9.93,0,0,0,4.32,6.15,14.89,14.89,0,0,0,7.81,1.91,19.33,19.33,0,0,0,6.44-1,23.77,23.77,0,0,0,4.78-2.2,5.48,5.48,0,0,1,1.91,1.83,4.49,4.49,0,0,1,.75,2.49,4.4,4.4,0,0,1-1.12,3,9.19,9.19,0,0,1-3.08,2.2,19.13,19.13,0,0,1-4.61,1.41,30.41,30.41,0,0,1-5.73.5,28.34,28.34,0,0,1-8.94-1.33,18.17,18.17,0,0,1-6.89-4,18.73,18.73,0,0,1-4.49-6.69,24.61,24.61,0,0,1-1.62-9.3,23.47,23.47,0,0,1,1.58-9,18.36,18.36,0,0,1,4.28-6.39,17.14,17.14,0,0,1,6.27-3.83,22.79,22.79,0,0,1,7.56-1.24,21.16,21.16,0,0,1,7.48,1.28A17.3,17.3,0,0,1,246.59,63a16.47,16.47,0,0,1,3.78,5.48,17.5,17.5,0,0,1,1.37,6.94A4.62,4.62,0,0,1,250.53,79a6,6,0,0,1-3.36,1.5Zm9.22-17.7a9.33,9.33,0,0,0-6.81,2.7q-2.74,2.7-3.07,7.69l18.44-2.75a9.2,9.2,0,0,0-2.41-5.35Q237.37,66.07,233.29,66.07Z"/><path class="cls-1" d="M296.36,91.08a5.22,5.22,0,0,1-.83,3.08A9.4,9.4,0,0,1,293,96.4a24.64,24.64,0,0,1-5.49,2.45,25.17,25.17,0,0,1-7.89,1.12q-10,0-15.83-5.11T258,79.2a25.39,25.39,0,0,1,1.58-9.43,18.11,18.11,0,0,1,4.28-6.52,17,17,0,0,1,6.36-3.83,24.26,24.26,0,0,1,7.89-1.24,19.27,19.27,0,0,1,4.24.45,21.44,21.44,0,0,1,3.57,1.13v-15a10.43,10.43,0,0,1,1.95-.46,17.39,17.39,0,0,1,2.79-.21A7.07,7.07,0,0,1,295,45.13c.91.72,1.37,2,1.37,3.82ZM285.89,68.23A13,13,0,0,0,283,67a12.47,12.47,0,0,0-3.57-.49,10.62,10.62,0,0,0-7.73,3q-3.07,3-3.07,9.8,0,6.41,2.95,9.35a10.79,10.79,0,0,0,8,3,11.72,11.72,0,0,0,6.32-1.66Z"/><path class="cls-1" d="M306.58,47.62a5.63,5.63,0,0,1,1.7-4.11,5.93,5.93,0,0,1,4.36-1.7,5.76,5.76,0,0,1,4.32,1.7,5.69,5.69,0,0,1,1.67,4.11,5.76,5.76,0,0,1-6,5.9,5.89,5.89,0,0,1-4.36-1.7A5.71,5.71,0,0,1,306.58,47.62Zm.83,12.05c.44-.11,1.09-.25,1.95-.41a14.37,14.37,0,0,1,2.78-.25,7.09,7.09,0,0,1,4.37,1.08c.91.72,1.37,2,1.37,3.82V98.64q-.67.17-1.95.42a15.23,15.23,0,0,1-2.79.25,7.05,7.05,0,0,1-4.36-1.08c-.91-.72-1.37-2-1.37-3.83Z"/><path class="cls-1" d="M354.1,95.32a20.3,20.3,0,0,1-3.86,1.41,20,20,0,0,1-5.11.58,23.28,23.28,0,0,1-7.06-1,14.88,14.88,0,0,1-5.82-3.36,16.06,16.06,0,0,1-3.94-6,24.61,24.61,0,0,1-1.46-9,23.19,23.19,0,0,1,1.46-8.52,16.4,16.4,0,0,1,4.15-6.19,17.56,17.56,0,0,1,6.44-3.74,26.17,26.17,0,0,1,8.31-1.24,27.6,27.6,0,0,1,7.93,1.08,22.44,22.44,0,0,1,5.78,2.49A8.81,8.81,0,0,1,363.29,64a5.4,5.4,0,0,1,.87,3.16V99.22a16.13,16.13,0,0,1-1.54,7.32,13.77,13.77,0,0,1-4.19,5,18.07,18.07,0,0,1-6.24,2.87,31,31,0,0,1-7.72.91,31.44,31.44,0,0,1-7.52-.79,16.71,16.71,0,0,1-4.78-1.78,5.31,5.31,0,0,1-2.74-4.66,5.48,5.48,0,0,1,.66-2.74,4.8,4.8,0,0,1,1.58-1.74,24.42,24.42,0,0,0,5.24,2.32,20.91,20.91,0,0,0,6.56,1,13.83,13.83,0,0,0,7.81-1.91q2.82-1.91,2.82-6.15Zm-7.22-6.15a11.43,11.43,0,0,0,4.11-.66,13.23,13.23,0,0,0,2.95-1.58V68.15a15.42,15.42,0,0,0-2.7-1.17,12.2,12.2,0,0,0-3.7-.49,9.9,9.9,0,0,0-7.35,2.78c-1.86,1.86-2.79,4.72-2.79,8.6a17.3,17.3,0,0,0,.71,5.32,8.89,8.89,0,0,0,2,3.49,7.52,7.52,0,0,0,3,1.91A11.68,11.68,0,0,0,346.88,89.17Z"/><path class="cls-1" d="M383.1,83.77a9.93,9.93,0,0,0,4.32,6.15,14.89,14.89,0,0,0,7.81,1.91,19.29,19.29,0,0,0,6.44-1,23.77,23.77,0,0,0,4.78-2.2,5.39,5.39,0,0,1,1.91,1.83,4.49,4.49,0,0,1,.75,2.49,4.35,4.35,0,0,1-1.12,3,9.19,9.19,0,0,1-3.08,2.2,19.13,19.13,0,0,1-4.61,1.41,30.41,30.41,0,0,1-5.73.5,28.23,28.23,0,0,1-8.93-1.33,18.13,18.13,0,0,1-6.9-4,18.73,18.73,0,0,1-4.49-6.69,24.61,24.61,0,0,1-1.62-9.3,23.47,23.47,0,0,1,1.58-9,18.36,18.36,0,0,1,4.28-6.39,17.14,17.14,0,0,1,6.27-3.83,22.89,22.89,0,0,1,7.57-1.24,21.15,21.15,0,0,1,7.47,1.28A17.3,17.3,0,0,1,405.62,63a16.18,16.18,0,0,1,3.78,5.48,17.5,17.5,0,0,1,1.37,6.94,4.66,4.66,0,0,1-1.2,3.49,6.09,6.09,0,0,1-3.37,1.5Zm9.23-17.7a9.33,9.33,0,0,0-6.82,2.7q-2.75,2.7-3.07,7.69l18.44-2.75a9.2,9.2,0,0,0-2.41-5.35Q396.4,66.07,392.33,66.07Z"/><path class="cls-1" d="M443,68.15a8.48,8.48,0,0,0-5.53-1.66,16,16,0,0,0-4.44.58,14.15,14.15,0,0,0-3.53,1.49V98.64l-2,.42a14.93,14.93,0,0,1-2.82.25,7.08,7.08,0,0,1-4.32-1.08c-.95-.72-1.42-2-1.42-3.83V67.73a5.77,5.77,0,0,1,.83-3.24,9.33,9.33,0,0,1,2.58-2.41,21.92,21.92,0,0,1,6.4-2.78,32.38,32.38,0,0,1,8.81-1.12q8.55,0,13.25,3.78t4.69,11.09V98.64q-.66.17-2,.42a15.2,15.2,0,0,1-2.78.25,7,7,0,0,1-4.36-1.08c-.92-.72-1.38-2-1.38-3.83v-21Q445,69.81,443,68.15Z"/><path class="cls-1" d="M474.58,83.77a9.93,9.93,0,0,0,4.32,6.15,14.89,14.89,0,0,0,7.81,1.91,19.29,19.29,0,0,0,6.44-1,23.77,23.77,0,0,0,4.78-2.2,5.39,5.39,0,0,1,1.91,1.83,4.49,4.49,0,0,1,.75,2.49,4.35,4.35,0,0,1-1.12,3,9.09,9.09,0,0,1-3.08,2.2,19.13,19.13,0,0,1-4.61,1.41,30.41,30.41,0,0,1-5.73.5,28.23,28.23,0,0,1-8.93-1.33,18.13,18.13,0,0,1-6.9-4,18.73,18.73,0,0,1-4.49-6.69,24.61,24.61,0,0,1-1.62-9.3,23.47,23.47,0,0,1,1.58-9A18.36,18.36,0,0,1,470,63.25a17.1,17.1,0,0,1,6.28-3.83,22.79,22.79,0,0,1,7.56-1.24,21.15,21.15,0,0,1,7.47,1.28A17.3,17.3,0,0,1,497.1,63a16.18,16.18,0,0,1,3.78,5.48,17.33,17.33,0,0,1,1.37,6.94,4.66,4.66,0,0,1-1.2,3.49,6.09,6.09,0,0,1-3.37,1.5Zm9.23-17.7a9.33,9.33,0,0,0-6.82,2.7,11.46,11.46,0,0,0-3.07,7.69l18.44-2.75a9.25,9.25,0,0,0-2.4-5.35Q487.88,66.07,483.81,66.07Z"/><path class="cls-1" d="M534,99.31c-2.1,0-3.6-.39-4.48-1.17a4.93,4.93,0,0,1-1.34-3.9V48.29c.5-.11,1.22-.25,2.17-.42a16.79,16.79,0,0,1,2.82-.25,7.22,7.22,0,0,1,4.4,1.09c1,.72,1.42,2,1.42,4v46c-.5.11-1.21.25-2.12.42A16.66,16.66,0,0,1,534,99.31Z"/><path class="cls-1" d="M588,50.08a7.63,7.63,0,0,1,.38,2.45,5,5,0,0,1-1,3.4,3.65,3.65,0,0,1-2.87,1.17H573V98.64q-.66.17-2.07.42a17.4,17.4,0,0,1-2.91.25c-2.11,0-3.6-.39-4.49-1.17s-1.33-2.07-1.33-3.9V57.1h-14a12.5,12.5,0,0,1-.79-1.83,7.3,7.3,0,0,1-.37-2.41,4.91,4.91,0,0,1,1-3.45A3.71,3.71,0,0,1,551,48.29h36.22A8.3,8.3,0,0,1,588,50.08Z"/><path class="cls-1" d="M6.76,40.89A84.53,84.53,0,0,0,10.7,67.08L5.57,90.7A53.52,53.52,0,0,1,6.76,40.89Z"/><path class="cls-1" d="M48.1,120.1a53.25,53.25,0,0,1-29.71-12.83l3.44-15.82a108.07,108.07,0,0,0,8.81,12.25A93.11,93.11,0,0,0,48.1,120.1Z"/><path class="cls-1" d="M50.16,81.44,87.1,38.09H99.17a53.48,53.48,0,0,0-80.78-11c-.22.2-.43.39-.65.61.05-.24.11-.49.17-.73a37,37,0,0,1,6.78-14.07A28.63,28.63,0,0,1,46.84,2,42.32,42.32,0,0,1,63,4.84,48.8,48.8,0,0,0,42.7,0H41.6A31,31,0,0,0,17.53,11.87C12,18.78,8.91,28.17,8.46,39.09c0,.3,0,.6,0,.9a81.77,81.77,0,0,0,3,23.76l4.9-22.53L17,38.09H31.26Z"/><path class="cls-1" d="M111.35,63.69c4.57,17.86,2.87,35.19-5.83,46.12-8.28,10.41-21.47,13.61-36.19,8.79l-.7-.24c.29-.07.58-.15.86-.24a53.48,53.48,0,0,0,31.83-76.33L87.1,107.7H70.69l8.85-41.37-28.84,34H42.93L27.37,65.93,25.15,76.18,22.31,89.24a106.7,106.7,0,0,0,9.74,13.82,91.36,91.36,0,0,0,18,16.72c.24.17.47.33.71.48,21.17,14.38,43.41,13.87,55.52-1.35,6.14-7.71,9.1-18.3,9.1-30.09A85.57,85.57,0,0,0,111.35,63.69Z"/></g></g></svg>